<svg width="233" height="56" viewBox="0 0 233 56" fill="none" xmlns="http://www.w3.org/2000/svg">
<rect width="233" height="56" rx="16" fill="#F48FB1"/>
<g clip-path="url(#clip0_2_333)">
<path d="M27 19H45C45.2652 19 45.5196 19.1054 45.7071 19.2929C45.8946 19.4804 46 19.7348 46 20V36C46 36.2652 45.8946 36.5196 45.7071 36.7071C45.5196 36.8946 45.2652 37 45 37H27C26.7348 37 26.4804 36.8946 26.2929 36.7071C26.1054 36.5196 26 36.2652 26 36V20C26 19.7348 26.1054 19.4804 26.2929 19.2929C26.4804 19.1054 26.7348 19 27 19ZM44 23.238L36.072 30.338L28 23.216V35H44V23.238ZM28.511 21L36.061 27.662L43.502 21H28.511Z" fill="white"/>
</g>
<path d="M62.6719 25.4929C62.6188 25.0223 62.4001 24.6577 62.0156 24.3991C61.6312 24.1373 61.1473 24.0064 60.5639 24.0064C60.1463 24.0064 59.785 24.0727 59.4801 24.2053C59.1752 24.3345 58.9382 24.5135 58.7692 24.7422C58.6035 24.9676 58.5206 25.2244 58.5206 25.5128C58.5206 25.7547 58.5769 25.9635 58.6896 26.1392C58.8056 26.3149 58.9564 26.4624 59.142 26.5817C59.331 26.6977 59.5331 26.7955 59.7486 26.875C59.964 26.9512 60.1712 27.0142 60.37 27.0639L61.3643 27.3224C61.6892 27.402 62.0223 27.5097 62.3636 27.6456C62.705 27.7815 63.0215 27.9605 63.3132 28.1825C63.6049 28.4046 63.8402 28.6797 64.0192 29.0078C64.2015 29.3359 64.2926 29.7287 64.2926 30.1861C64.2926 30.7628 64.1435 31.2749 63.8452 31.7223C63.5502 32.1697 63.121 32.5227 62.5575 32.7812C61.9974 33.0398 61.3196 33.169 60.5241 33.169C59.7618 33.169 59.1023 33.0481 58.5455 32.8061C57.9886 32.5642 57.5528 32.2211 57.2379 31.777C56.9231 31.3295 56.7491 30.7992 56.7159 30.1861H58.2571C58.2869 30.554 58.4063 30.8606 58.6151 31.1058C58.8272 31.3478 59.0973 31.5284 59.4254 31.6477C59.7569 31.7637 60.1198 31.8217 60.5142 31.8217C60.9484 31.8217 61.3345 31.7538 61.6726 31.6179C62.014 31.4787 62.2824 31.2865 62.478 31.0412C62.6735 30.7926 62.7713 30.5026 62.7713 30.1712C62.7713 29.8696 62.6851 29.6226 62.5128 29.4304C62.3438 29.2382 62.1134 29.0791 61.8217 28.9531C61.5334 28.8272 61.2069 28.7161 60.8423 28.62L59.6392 28.2919C58.8239 28.0698 58.1776 27.7434 57.7003 27.3125C57.2263 26.8816 56.9893 26.3116 56.9893 25.6023C56.9893 25.0156 57.1484 24.5036 57.4666 24.0661C57.7848 23.6286 58.2157 23.2888 58.7592 23.0469C59.3028 22.8016 59.916 22.679 60.5987 22.679C61.2881 22.679 61.8963 22.8 62.4233 23.0419C62.9536 23.2839 63.3712 23.617 63.6761 24.0412C63.9811 24.4621 64.1402 24.946 64.1534 25.4929H62.6719ZM67.3784 33V22.8182H73.7619V24.1406H68.9146V27.2429H73.4288V28.5604H68.9146V31.6776H73.8216V33H67.3784ZM85.282 22.8182V33H83.87L78.6946 25.5327H78.6001V33H77.0639V22.8182H78.4858L83.6662 30.2955H83.7607V22.8182H85.282ZM92.0691 33H88.7729V22.8182H92.1735C93.1711 22.8182 94.0279 23.022 94.7438 23.4297C95.4597 23.834 96.0082 24.4157 96.3894 25.1747C96.7739 25.9304 96.9661 26.8369 96.9661 27.8942C96.9661 28.9548 96.7722 29.8662 96.3844 30.6286C95.9999 31.3909 95.4431 31.9775 94.714 32.3885C93.9848 32.7962 93.1032 33 92.0691 33ZM90.3091 31.6577H91.9846C92.7601 31.6577 93.4048 31.5118 93.9185 31.2202C94.4322 30.9252 94.8167 30.4993 95.0719 29.9425C95.3271 29.3823 95.4547 28.6996 95.4547 27.8942C95.4547 27.0954 95.3271 26.4176 95.0719 25.8608C94.82 25.304 94.4438 24.8814 93.9434 24.593C93.4429 24.3047 92.8214 24.1605 92.079 24.1605H90.3091V31.6577ZM105.942 33H104.311L107.975 22.8182H109.75L113.414 33H111.783L108.905 24.6676H108.825L105.942 33ZM106.215 29.0128H111.505V30.3054H106.215V29.0128ZM116.134 33V22.8182H119.763C120.556 22.8182 121.212 22.9624 121.732 23.2507C122.253 23.5391 122.642 23.9335 122.901 24.4339C123.159 24.9311 123.288 25.4912 123.288 26.1143C123.288 26.7408 123.157 27.3042 122.896 27.8047C122.637 28.3018 122.246 28.6963 121.722 28.9879C121.202 29.2763 120.547 29.4205 119.759 29.4205H117.263V28.1179H119.619C120.12 28.1179 120.526 28.0317 120.837 27.8594C121.149 27.6837 121.378 27.4451 121.523 27.1435C121.669 26.8419 121.742 26.4988 121.742 26.1143C121.742 25.7299 121.669 25.3885 121.523 25.0902C121.378 24.7919 121.147 24.5582 120.832 24.3892C120.521 24.2202 120.11 24.1357 119.599 24.1357H117.67V33H116.134ZM126.339 33V22.8182H129.969C130.761 22.8182 131.417 22.9624 131.937 23.2507C132.458 23.5391 132.847 23.9335 133.106 24.4339C133.364 24.9311 133.493 25.4912 133.493 26.1143C133.493 26.7408 133.363 27.3042 133.101 27.8047C132.842 28.3018 132.451 28.6963 131.927 28.9879C131.407 29.2763 130.752 29.4205 129.964 29.4205H127.468V28.1179H129.824C130.325 28.1179 130.731 28.0317 131.042 27.8594C131.354 27.6837 131.583 27.4451 131.729 27.1435C131.874 26.8419 131.947 26.4988 131.947 26.1143C131.947 25.7299 131.874 25.3885 131.729 25.0902C131.583 24.7919 131.352 24.5582 131.037 24.3892C130.726 24.2202 130.315 24.1357 129.805 24.1357H127.876V33H126.339ZM136.544 33V22.8182H138.081V31.6776H142.694V33H136.544ZM147.233 22.8182V33H145.697V22.8182H147.233ZM159.177 26.1293H157.626C157.566 25.7978 157.455 25.5062 157.293 25.2543C157.13 25.0024 156.931 24.7886 156.696 24.6129C156.461 24.4373 156.197 24.3047 155.906 24.2152C155.617 24.1257 155.311 24.081 154.986 24.081C154.399 24.081 153.874 24.2285 153.41 24.5234C152.949 24.8184 152.585 25.2509 152.316 25.821C152.051 26.3911 151.918 27.0871 151.918 27.9091C151.918 28.7377 152.051 29.437 152.316 30.0071C152.585 30.5772 152.951 31.008 153.415 31.2997C153.879 31.5914 154.401 31.7372 154.981 31.7372C155.302 31.7372 155.607 31.6941 155.896 31.608C156.187 31.5185 156.451 31.3875 156.686 31.2152C156.921 31.0429 157.12 30.8324 157.283 30.5838C157.448 30.3319 157.563 30.0436 157.626 29.7188L159.177 29.7237C159.094 30.2242 158.933 30.6849 158.695 31.1058C158.459 31.5234 158.156 31.8847 157.785 32.1896C157.417 32.4912 156.996 32.7249 156.522 32.8906C156.048 33.0563 155.531 33.1392 154.971 33.1392C154.089 33.1392 153.304 32.9304 152.614 32.5128C151.925 32.0919 151.381 31.4903 150.984 30.7081C150.589 29.9259 150.392 28.9929 150.392 27.9091C150.392 26.822 150.591 25.889 150.989 25.1101C151.386 24.3279 151.93 23.728 152.619 23.3104C153.309 22.8894 154.093 22.679 154.971 22.679C155.511 22.679 156.015 22.7569 156.482 22.9126C156.953 23.0651 157.375 23.2905 157.75 23.5888C158.125 23.8838 158.434 24.245 158.68 24.6726C158.925 25.0968 159.091 25.5824 159.177 26.1293ZM163.057 33H161.426L165.09 22.8182H166.865L170.529 33H168.898L166.02 24.6676H165.94L163.057 33ZM163.33 29.0128H168.62V30.3054H163.33V29.0128ZM171.544 24.1406V22.8182H179.424V24.1406H176.247V33H174.716V24.1406H171.544ZM183.952 22.8182V33H182.415V22.8182H183.952ZM196.283 27.9091C196.283 28.9962 196.085 29.9309 195.687 30.7131C195.289 31.492 194.744 32.0919 194.051 32.5128C193.362 32.9304 192.578 33.1392 191.7 33.1392C190.818 33.1392 190.031 32.9304 189.338 32.5128C188.649 32.0919 188.105 31.4903 187.707 30.7081C187.31 29.9259 187.111 28.9929 187.111 27.9091C187.111 26.822 187.31 25.889 187.707 25.1101C188.105 24.3279 188.649 23.728 189.338 23.3104C190.031 22.8894 190.818 22.679 191.7 22.679C192.578 22.679 193.362 22.8894 194.051 23.3104C194.744 23.728 195.289 24.3279 195.687 25.1101C196.085 25.889 196.283 26.822 196.283 27.9091ZM194.762 27.9091C194.762 27.0805 194.628 26.3828 194.359 25.8161C194.094 25.246 193.73 24.8151 193.266 24.5234C192.805 24.2285 192.283 24.081 191.7 24.081C191.113 24.081 190.589 24.2285 190.129 24.5234C189.668 24.8151 189.303 25.246 189.035 25.8161C188.77 26.3828 188.637 27.0805 188.637 27.9091C188.637 28.7377 188.77 29.437 189.035 30.0071C189.303 30.5739 189.668 31.0047 190.129 31.2997C190.589 31.5914 191.113 31.7372 191.7 31.7372C192.283 31.7372 192.805 31.5914 193.266 31.2997C193.73 31.0047 194.094 30.5739 194.359 30.0071C194.628 29.437 194.762 28.7377 194.762 27.9091ZM207.667 22.8182V33H206.255L201.079 25.5327H200.985V33H199.449V22.8182H200.871L206.051 30.2955H206.145V22.8182H207.667Z" fill="white"/>
<defs>
<clipPath id="clip0_2_333">
<rect width="24" height="24" fill="white" transform="translate(24 16)"/>
</clipPath>
</defs>
</svg>
