<svg width="16" height="15" viewBox="0 0 16 15" fill="none" xmlns="http://www.w3.org/2000/svg">
<g clip-path="url(#clip0_6014_2241)">
<path d="M2.54166 1.875H13.7917C13.9574 1.875 14.1164 1.94085 14.2336 2.05806C14.3508 2.17527 14.4167 2.33424 14.4167 2.5V12.5C14.4167 12.6658 14.3508 12.8247 14.2336 12.9419C14.1164 13.0592 13.9574 13.125 13.7917 13.125H2.54166C2.3759 13.125 2.21692 13.0592 2.09971 12.9419C1.9825 12.8247 1.91666 12.6658 1.91666 12.5V2.5C1.91666 2.33424 1.9825 2.17527 2.09971 2.05806C2.21692 1.94085 2.3759 1.875 2.54166 1.875ZM13.1667 4.52375L8.21166 8.96125L3.16666 4.51V11.875H13.1667V4.52375ZM3.48603 3.125L8.20478 7.28875L12.8554 3.125H3.48603Z" fill="#8E8E8E"/>
</g>
<defs>
<clipPath id="clip0_6014_2241">
<rect width="15" height="15" fill="white" transform="translate(0.666656)"/>
</clipPath>
</defs>
</svg>
