<svg width="16" height="15" viewBox="0 0 16 15" fill="none" xmlns="http://www.w3.org/2000/svg">
<path d="M8.33331 13.75C4.88144 13.75 2.08331 10.9519 2.08331 7.5C2.08331 4.04813 4.88144 1.25 8.33331 1.25C11.7852 1.25 14.5833 4.04813 14.5833 7.5C14.5833 10.9519 11.7852 13.75 8.33331 13.75ZM8.33331 12.5C9.6594 12.5 10.9312 11.9732 11.8688 11.0355C12.8065 10.0979 13.3333 8.82608 13.3333 7.5C13.3333 6.17392 12.8065 4.90215 11.8688 3.96447C10.9312 3.02678 9.6594 2.5 8.33331 2.5C7.00723 2.5 5.73546 3.02678 4.79778 3.96447C3.8601 4.90215 3.33331 6.17392 3.33331 7.5C3.33331 8.82608 3.8601 10.0979 4.79778 11.0355C5.73546 11.9732 7.00723 12.5 8.33331 12.5ZM6.45831 5.625H7.70831V9.375H6.45831V5.625ZM8.95831 5.625H10.2083V9.375H8.95831V5.625Z" fill="#F48FB1"/>
</svg>
