<svg width="16" height="15" viewBox="0 0 16 15" fill="none" xmlns="http://www.w3.org/2000/svg">
<g clip-path="url(#clip0_6014_2247)">
<path d="M6.52041 6.67625C7.10687 7.70655 7.96011 8.55979 8.99041 9.14625L9.54291 8.3725C9.63176 8.24808 9.76313 8.16055 9.91216 8.12646C10.0612 8.09237 10.2176 8.11408 10.3517 8.1875C11.2356 8.67058 12.2118 8.96111 13.216 9.04C13.3728 9.05242 13.5191 9.12346 13.6257 9.23895C13.7324 9.35444 13.7917 9.5059 13.7917 9.66313V12.4519C13.7917 12.6066 13.7343 12.7559 13.6306 12.8708C13.527 12.9856 13.3843 13.058 13.2304 13.0737C12.8992 13.1081 12.5654 13.125 12.2292 13.125C6.87916 13.125 2.54166 8.7875 2.54166 3.4375C2.54166 3.10125 2.55853 2.7675 2.59291 2.43625C2.60869 2.28231 2.68102 2.1397 2.7959 2.03602C2.91078 1.93234 3.06004 1.87497 3.21478 1.875H6.00353C6.16076 1.87498 6.31222 1.93422 6.42771 2.04091C6.5432 2.14759 6.61424 2.29389 6.62666 2.45063C6.70555 3.45487 6.99608 4.43105 7.47916 5.315C7.55257 5.4491 7.57429 5.60546 7.5402 5.7545C7.50611 5.90353 7.41857 6.0349 7.29416 6.12375L6.52041 6.67625ZM4.94416 6.26562L6.13166 5.4175C5.79465 4.69006 5.56375 3.91803 5.44603 3.125H3.79791C3.79416 3.22875 3.79228 3.33312 3.79228 3.4375C3.79166 8.0975 7.56916 11.875 12.2292 11.875C12.3335 11.875 12.4379 11.8731 12.5417 11.8687V10.2206C11.7486 10.1029 10.9766 9.87201 10.2492 9.535L9.40103 10.7225C9.05957 10.5898 8.72791 10.4332 8.40853 10.2537L8.37228 10.2331C7.14639 9.53545 6.13121 8.52026 5.43353 7.29437L5.41291 7.25812C5.23347 6.93875 5.07683 6.60709 4.94416 6.26562Z" fill="#8E8E8E"/>
</g>
<defs>
<clipPath id="clip0_6014_2247">
<rect width="15" height="15" fill="white" transform="translate(0.666656)"/>
</clipPath>
</defs>
</svg>
