<svg width="173" height="56" viewBox="0 0 173 56" fill="none" xmlns="http://www.w3.org/2000/svg">
<rect width="173" height="56" rx="16" fill="#F48FB1"/>
<g clip-path="url(#clip0_2_272)">
<path d="M28.965 21.0959L32.511 33.5059L35.551 27.4259L41.188 25.1709L28.965 21.0959ZM26.899 18.2999L45.705 24.5679C45.8023 24.6002 45.8874 24.6616 45.9487 24.7438C46.0099 24.8261 46.0444 24.9251 46.0475 25.0276C46.0505 25.1301 46.022 25.2311 45.9657 25.3168C45.9095 25.4026 45.8282 25.4689 45.733 25.5069L37 28.9999L32.575 37.8499C32.53 37.94 32.4588 38.0145 32.3707 38.0634C32.2827 38.1124 32.1819 38.1336 32.0816 38.1243C31.9813 38.115 31.8861 38.0756 31.8086 38.0113C31.731 37.947 31.6747 37.8608 31.647 37.7639L26.26 18.9109C26.235 18.8233 26.2345 18.7306 26.2584 18.6427C26.2823 18.5548 26.3297 18.4752 26.3956 18.4123C26.4615 18.3494 26.5433 18.3057 26.6322 18.2859C26.7211 18.2661 26.8137 18.2709 26.9 18.2999H26.899Z" fill="white"/>
</g>
<path d="M57.9787 33H56.348L60.0121 22.8182H61.7869L65.451 33H63.8203L60.9418 24.6676H60.8622L57.9787 33ZM58.2521 29.0128H63.5419V30.3054H58.2521V29.0128ZM68.1713 33V22.8182H71.8006C72.5927 22.8182 73.249 22.9624 73.7694 23.2507C74.2897 23.5391 74.6792 23.9335 74.9377 24.4339C75.1962 24.9311 75.3255 25.4912 75.3255 26.1143C75.3255 26.7408 75.1945 27.3042 74.9327 27.8047C74.6742 28.3018 74.2831 28.6963 73.7594 28.9879C73.2391 29.2763 72.5845 29.4205 71.7956 29.4205H69.2999V28.1179H71.6564C72.1569 28.1179 72.5629 28.0317 72.8745 27.8594C73.186 27.6837 73.4147 27.4451 73.5605 27.1435C73.7064 26.8419 73.7793 26.4988 73.7793 26.1143C73.7793 25.7299 73.7064 25.3885 73.5605 25.0902C73.4147 24.7919 73.1844 24.5582 72.8695 24.3892C72.5579 24.2202 72.147 24.1357 71.6365 24.1357H69.7076V33H68.1713ZM78.3764 33V22.8182H82.0057C82.7978 22.8182 83.4541 22.9624 83.9744 23.2507C84.4948 23.5391 84.8842 23.9335 85.1428 24.4339C85.4013 24.9311 85.5305 25.4912 85.5305 26.1143C85.5305 26.7408 85.3996 27.3042 85.1378 27.8047C84.8793 28.3018 84.4882 28.6963 83.9645 28.9879C83.4441 29.2763 82.7895 29.4205 82.0007 29.4205H79.505V28.1179H81.8615C82.362 28.1179 82.768 28.0317 83.0795 27.8594C83.3911 27.6837 83.6198 27.4451 83.7656 27.1435C83.9115 26.8419 83.9844 26.4988 83.9844 26.1143C83.9844 25.7299 83.9115 25.3885 83.7656 25.0902C83.6198 24.7919 83.3894 24.5582 83.0746 24.3892C82.763 24.2202 82.352 24.1357 81.8416 24.1357H79.9126V33H78.3764ZM88.5815 33V22.8182H90.1177V31.6776H94.7314V33H88.5815ZM96.1964 22.8182H97.9414L100.601 27.4467H100.711L103.37 22.8182H105.115L101.422 29.0028V33H99.8903V29.0028L96.1964 22.8182ZM120.989 22.8182V33H119.577L114.402 25.5327H114.307V33H112.771V22.8182H114.193L119.373 30.2955H119.468V22.8182H120.989ZM133.324 27.9091C133.324 28.9962 133.126 29.9309 132.728 30.7131C132.33 31.492 131.785 32.0919 131.092 32.5128C130.403 32.9304 129.619 33.1392 128.741 33.1392C127.859 33.1392 127.072 32.9304 126.379 32.5128C125.69 32.0919 125.146 31.4903 124.748 30.7081C124.351 29.9259 124.152 28.9929 124.152 27.9091C124.152 26.822 124.351 25.889 124.748 25.1101C125.146 24.3279 125.69 23.728 126.379 23.3104C127.072 22.8894 127.859 22.679 128.741 22.679C129.619 22.679 130.403 22.8894 131.092 23.3104C131.785 23.728 132.33 24.3279 132.728 25.1101C133.126 25.889 133.324 26.822 133.324 27.9091ZM131.803 27.9091C131.803 27.0805 131.669 26.3828 131.4 25.8161C131.135 25.246 130.771 24.8151 130.307 24.5234C129.846 24.2285 129.324 24.081 128.741 24.081C128.154 24.081 127.63 24.2285 127.17 24.5234C126.709 24.8151 126.344 25.246 126.076 25.8161C125.811 26.3828 125.678 27.0805 125.678 27.9091C125.678 28.7377 125.811 29.437 126.076 30.0071C126.344 30.5739 126.709 31.0047 127.17 31.2997C127.63 31.5914 128.154 31.7372 128.741 31.7372C129.324 31.7372 129.846 31.5914 130.307 31.2997C130.771 31.0047 131.135 30.5739 131.4 30.0071C131.669 29.437 131.803 28.7377 131.803 27.9091ZM138.36 33L135.536 22.8182H137.152L139.136 30.7031H139.23L141.294 22.8182H142.894L144.958 30.7081H145.052L147.031 22.8182H148.651L145.823 33H144.276L142.134 25.3736H142.054L139.911 33H138.36Z" fill="white"/>
<defs>
<clipPath id="clip0_2_272">
<rect width="24" height="24" fill="white" transform="translate(24 16)"/>
</clipPath>
</defs>
</svg>
